<svg version="1.1" xmlns="http://www.w3.org/2000/svg" xmlns:xlink="http://www.w3.org/1999/xlink" width="48" height="48" viewBox="0,0,256,256"><g fill-opacity="0" fill="#dddddd" fill-rule="nonzero" stroke="none" stroke-width="1" stroke-linecap="butt" stroke-linejoin="miter" stroke-miterlimit="10" stroke-dasharray="" stroke-dashoffset="0" font-family="none" font-weight="none" font-size="none" text-anchor="none" style="mix-blend-mode: normal"><path d="M0,256v-256h256v256z" id="bgRectangle"></path></g><g fill="none" fill-rule="nonzero" stroke="none" stroke-width="1" stroke-linecap="butt" stroke-linejoin="miter" stroke-miterlimit="10" stroke-dasharray="" stroke-dashoffset="0" font-family="none" font-weight="none" font-size="none" text-anchor="none" style="mix-blend-mode: normal"><g transform="scale(5.33333,5.33333)"><path d="M6,10c0,-2.209 1.791,-4 4,-4h28c2.209,0 4,1.791 4,4v28c0,2.209 -1.791,4 -4,4h-28c-2.209,0 -4,-1.791 -4,-4z" fill="#673ab7"></path><path d="M29.336,13.82c2.244,2.014 3.664,4.928 3.664,8.18c0,6.074 -4.926,11 -11,11c-3.252,0 -6.166,-1.42 -8.179,-3.664c1.74,4.481 6.083,7.664 11.179,7.664c6.627,0 12,-5.373 12,-12c0,-5.096 -3.183,-9.439 -7.664,-11.18zM21,19l-1,-5l1,-5l1,5z" fill="#fff59d"></path><path d="M25.271,11.4l-3.75,3.454l-4.792,1.746l3.751,-3.454z" fill="#fff59d"></path><path d="M25.139,16.807l-4.7,-1.979l-3.576,-3.634l4.699,1.98zM12.99,26l-0.99,-4l0.99,-4l1.01,4z" fill="#fff59d"></path><path d="M9.641,24.172l2.814,-3.01l3.893,-1.351l-2.803,3.027z" fill="#fff59d"></path><path d="M9.53,20.01l3.964,1.122l2.985,2.841l-3.975,-1.105z" fill="#fff59d"></path><path d="M41,40c0,-1.104 -0.896,-2 -2,-2h-10c-1.104,0 -2,-0.896 -2,-2c0,-1.104 0.896,-2 2,-2h5c1.104,0 2,-0.896 2,-2c0,-1.104 -0.896,-2 -2,-2h-6h-9c-1.104,0 -2,-0.896 -2,-2c0,-1.104 0.896,-2 2,-2h2c1.104,0 2,-0.896 2,-2c0,-1.104 -0.896,-2 -2,-2h-15v16c0,2.209 1.791,4 4,4h28c1.094,0 2.084,-0.441 2.806,-1.152c0.121,-0.258 0.194,-0.543 0.194,-0.848z" fill="#ba68c8"></path><path d="M12.312,23.26l0.678,2.74l0.707,-2.801l-0.668,-0.185z" fill="#d2a4dd"></path><path d="M11.602,22.001l0.036,0.035l-1.997,2.136l2.671,-0.912l1.385,-0.061l2.782,0.774l-2.072,-1.972zM25,37c0.74,0 1.463,-0.077 2.166,-0.205c-0.105,-0.244 -0.166,-0.512 -0.166,-0.795c0,-1.104 0.896,-2 2,-2h3.918c1.051,-0.926 1.946,-2.023 2.622,-3.262c-0.366,-0.447 -0.917,-0.738 -1.54,-0.738h-4.467c-1.969,1.855 -4.615,3 -7.533,3c-3.252,0 -6.166,-1.42 -8.179,-3.664c1.74,4.481 6.083,7.664 11.179,7.664z" fill="#d2a4dd"></path></g></g></svg>