<svg version="1.1" xmlns="http://www.w3.org/2000/svg" xmlns:xlink="http://www.w3.org/1999/xlink" width="48px" height="48px" viewBox="0,0,256,256"><g fill-opacity="0" fill="#dddddd" fill-rule="nonzero" stroke="none" stroke-width="1" stroke-linecap="butt" stroke-linejoin="miter" stroke-miterlimit="10" stroke-dasharray="" stroke-dashoffset="0" font-family="none" font-weight="none" font-size="none" text-anchor="none" style="mix-blend-mode: normal"><path d="M0,256v-256h256v256z" id="bgRectangle"></path></g><g fill="none" fill-rule="nonzero" stroke="none" stroke-width="1" stroke-linecap="butt" stroke-linejoin="miter" stroke-miterlimit="10" stroke-dasharray="" stroke-dashoffset="0" font-family="none" font-weight="none" font-size="none" text-anchor="none" style="mix-blend-mode: normal"><g transform="scale(5.33333,5.33333)"><path d="M42,38v-28c0,-2.209 -1.791,-4 -4,-4h-28c-2.209,0 -4,1.791 -4,4v28c0,2.209 1.791,4 4,4h28c2.209,0 4,-1.791 4,-4z" fill="#c5cae9"></path><path d="M32,29.5c0,5.13 -2.49,9.68 -6.33,12.5h-15.67c-2.21,0 -4,-1.79 -4,-4v-19.89c2.75,-2.55 6.45,-4.11 10.5,-4.11c8.56,0 15.5,6.94 15.5,15.5z" fill="#f8bbd0"></path><path d="M28,29.5c0,6.35 -5.15,11.5 -11.5,11.5c-4.68,0 -8.71,-2.8 -10.5,-6.81v-9.38c1.79,-4.01 5.82,-6.81 10.5,-6.81c6.35,0 11.5,5.15 11.5,11.5z" fill="#ffe0b2"></path><path d="M24,29.5c0,-4.149 -3.357,-7.5 -7.5,-7.5c-4.143,0 -7.5,3.351 -7.5,7.5c0,4.143 3.357,7.5 7.5,7.5c4.143,0 7.5,-3.357 7.5,-7.5z" fill="#fff8e1"></path><path d="M34,31h-3v-8h3z" fill="#795548"></path><circle cx="29.5" cy="14.5" r="2.5" fill="#689f38"></circle><circle cx="35.5" cy="14.5" r="2.5" fill="#689f38"></circle><circle cx="29.5" cy="21.5" r="2.5" fill="#689f38"></circle><circle cx="35.5" cy="21.5" r="2.5" fill="#689f38"></circle><circle cx="28.5" cy="17.5" r="2.5" fill="#689f38"></circle><circle cx="36.5" cy="17.5" r="2.5" fill="#689f38"></circle><path d="M32.5,20c1.382,0 2.5,1.118 2.5,2.5c0,1.382 -1.118,2.5 -2.5,2.5c-1.382,0 -2.5,-1.118 -2.5,-2.5c0,-1.382 1.118,-2.5 2.5,-2.5z" fill="#689f38"></path><path d="M32.5,10c1.382,0 2.5,1.118 2.5,2.5c0,1.382 -1.118,2.5 -2.5,2.5c-1.382,0 -2.5,-1.118 -2.5,-2.5c0,-1.382 1.118,-2.5 2.5,-2.5z" fill="#689f38"></path><path d="M32.5,12.5c2.303,0 4.167,2.422 4.167,5.417c0,2.995 -1.863,5.417 -4.167,5.417c-2.304,0 -4.167,-2.423 -4.167,-5.417c0,-2.994 1.864,-5.417 4.167,-5.417z" fill="#689f38"></path><path d="M31,36.8c0,0.76 0,1.2 0,1.2h-25v-8.35c2.61,-1.06 5.86,-1.65 9.39,-1.65c4.52,0 8.59,1.08 11.44,2.82c2.58,1.56 4.17,3.67 4.17,5.98z" fill="#8bc34a"></path><path d="M42,30.81v7.19c0,2.21 -1.79,4 -4,4h-28c-1.86,0 -3.43,-1.27 -3.87,-3c-0.09,-0.32 -0.13,-0.65 -0.13,-1v-1h7c5.53,0 9.15,-3.82 13.83,-6.18c2.09,-1.06 4.39,-1.82 7.17,-1.82c3.63,0 6.13,0.78 8,1.81z" fill="#689f38"></path></g></g></svg>