<svg version="1.1" xmlns="http://www.w3.org/2000/svg" xmlns:xlink="http://www.w3.org/1999/xlink" width="48px" height="48px" viewBox="0,0,256,256"><g fill-opacity="0" fill="#dddddd" fill-rule="nonzero" stroke="none" stroke-width="1" stroke-linecap="butt" stroke-linejoin="miter" stroke-miterlimit="10" stroke-dasharray="" stroke-dashoffset="0" font-family="none" font-weight="none" font-size="none" text-anchor="none" style="mix-blend-mode: normal"><path d="M0,256v-256h256v256z" id="bgRectangle"></path></g><g fill="none" fill-rule="nonzero" stroke="none" stroke-width="1" stroke-linecap="butt" stroke-linejoin="miter" stroke-miterlimit="10" stroke-dasharray="" stroke-dashoffset="0" font-family="none" font-weight="none" font-size="none" text-anchor="none" style="mix-blend-mode: normal"><g transform="scale(5.33333,5.33333)"><path d="M38,6h-28c-2.21,0 -4,1.79 -4,4v28c0,0.35 0.04,0.68 0.13,1c0.44,1.73 2.01,3 3.87,3h28c2.21,0 4,-1.79 4,-4v-28c0,-2.21 -1.79,-4 -4,-4z" fill="#7e57c2"></path><path d="M34,31h-3v-8h3z" fill="#311b92"></path><circle cx="29.5" cy="14.5" r="2.5" fill="#311b92"></circle><circle cx="35.5" cy="14.5" r="2.5" fill="#311b92"></circle><circle cx="29.5" cy="21.5" r="2.5" fill="#311b92"></circle><circle cx="35.5" cy="21.5" r="2.5" fill="#311b92"></circle><circle cx="28.5" cy="17.5" r="2.5" fill="#311b92"></circle><circle cx="36.5" cy="17.5" r="2.5" fill="#311b92"></circle><path d="M32.5,20c1.382,0 2.5,1.118 2.5,2.5c0,1.382 -1.118,2.5 -2.5,2.5c-1.382,0 -2.5,-1.118 -2.5,-2.5c0,-1.382 1.118,-2.5 2.5,-2.5z" fill="#311b92"></path><path d="M32.5,10c1.382,0 2.5,1.118 2.5,2.5c0,1.382 -1.118,2.5 -2.5,2.5c-1.382,0 -2.5,-1.118 -2.5,-2.5c0,-1.382 1.118,-2.5 2.5,-2.5z" fill="#311b92"></path><path d="M32.5,12.5c2.303,0 4.167,2.422 4.167,5.417c0,2.995 -1.863,5.417 -4.167,5.417c-2.304,0 -4.167,-2.423 -4.167,-5.417c0,-2.994 1.864,-5.417 4.167,-5.417z" fill="#311b92"></path><path d="M31,36.8c0,0.76 0,1.2 0,1.2h-25v-8.35c2.61,-1.06 5.86,-1.65 9.39,-1.65c4.52,0 8.59,1.08 11.44,2.82c2.58,1.56 4.17,3.67 4.17,5.98z" fill="#5e35b1"></path><path d="M42,30.81v7.19c0,2.21 -1.79,4 -4,4h-28c-1.86,0 -3.43,-1.27 -3.87,-3c-0.09,-0.32 -0.13,-0.65 -0.13,-1v-1h7c5.53,0 9.15,-3.82 13.83,-6.18c2.09,-1.06 4.39,-1.82 7.17,-1.82c3.63,0 6.13,0.78 8,1.81z" fill="#4527a0"></path><g><path d="M20,15c0,-2.766 -2.238,-5 -5,-5c-2.762,0 -5,2.234 -5,5c0,2.762 2.238,5 5,5c2.762,0 5,-2.238 5,-5" fill="#fff9c4"></path><circle cx="17" cy="14" r="1" fill="#ffe082"></circle><circle cx="16" cy="17" r="1" fill="#ffe082"></circle><circle cx="14" cy="16" r="2" fill="#ffe082"></circle></g></g></g></svg>