<svg version="1.1" xmlns="http://www.w3.org/2000/svg" xmlns:xlink="http://www.w3.org/1999/xlink" width="48px" height="48px" viewBox="0,0,256,256"><g fill-opacity="0" fill="#000000" fill-rule="nonzero" stroke="none" stroke-width="1" stroke-linecap="butt" stroke-linejoin="miter" stroke-miterlimit="10" stroke-dasharray="" stroke-dashoffset="0" font-family="none" font-weight="none" font-size="none" text-anchor="none" style="mix-blend-mode: normal"><path d="M0,256v-256h256v256z" id="bgRectangle"></path></g><g fill="none" fill-rule="nonzero" stroke="none" stroke-width="1" stroke-linecap="butt" stroke-linejoin="miter" stroke-miterlimit="10" stroke-dasharray="" stroke-dashoffset="0" font-family="none" font-weight="none" font-size="none" text-anchor="none" style="mix-blend-mode: normal"><g transform="scale(5.33333,5.33333)"><path d="M35,17l-11,-11l-11,11z" fill="#ff9800"></path><path d="M11,11h26v6h-26z" fill="#ff9800"></path><path d="M11,17h26v20h-26z" fill="#ffecb3"></path><path d="M35,17h-22l-7,7l18,18l18,-18z" fill="#ffecb3"></path><path d="M13,24c0,6.078 4.923,11 11,11c6.076,0 11,-4.922 11,-11c0,-6.078 -4.924,-11 -11,-11c-6.077,0 -11,4.922 -11,11" fill="#ffeb3b"></path><path d="M13,24c0,6.078 4.923,11 11,11c6.076,0 11,-4.922 11,-11c0,-2.66 -0.943,-5.099 -2.513,-7h-16.974c-1.57,1.901 -2.513,4.34 -2.513,7z" fill="#fff9c4"></path><path d="M6,15h36v2h-36z" fill="#546e7a"></path></g></g></svg>