<svg version="1.1" xmlns="http://www.w3.org/2000/svg" xmlns:xlink="http://www.w3.org/1999/xlink" width="48px" height="48px" viewBox="0,0,256,256"><g fill-opacity="0" fill="#dddddd" fill-rule="nonzero" stroke="none" stroke-width="1" stroke-linecap="butt" stroke-linejoin="miter" stroke-miterlimit="10" stroke-dasharray="" stroke-dashoffset="0" font-family="none" font-weight="none" font-size="none" text-anchor="none" style="mix-blend-mode: normal"><path d="M0,256v-256h256v256z" id="bgRectangle"></path></g><g fill="none" fill-rule="nonzero" stroke="none" stroke-width="1" stroke-linecap="butt" stroke-linejoin="miter" stroke-miterlimit="10" stroke-dasharray="" stroke-dashoffset="0" font-family="none" font-weight="none" font-size="none" text-anchor="none" style="mix-blend-mode: normal"><g transform="scale(5.33333,5.33333)"><path d="M11,11h26v26h-26z" fill="#ff9800"></path><path d="M42.4,24l-15.8,15.7h-5.2l-2.7,-2.7h4.2v-15.5h-14.7l15.8,-15.9z" fill="#ff9800"></path><path d="M40,37h-9c-1.1,0 -2,-0.9 -2,-2c0,-1.1 0.9,-2 2,-2h3c1.1,0 2,-0.9 2,-2c0,-1.1 -0.9,-2 -2,-2h-6h-3h-6c-1.1,0 -2,-0.9 -2,-2c0,-1.1 0.9,-2 2,-2h2c1.1,0 2,-0.9 2,-2v0v0c0,-1.1 -0.9,-2 -2,-2h-14v0c-1.1,0 -2,0.9 -2,2c0,1.1 0.9,2 2,2h1c1.1,0 2,0.9 2,2c0,1.1 -0.9,2 -2,2v0c-1.1,0 -2,0.9 -2,2c0,1.1 0.9,2 2,2h1c1.1,0 2,0.9 2,2c0,1.1 -0.9,2 -2,2c-1.1,0 -2,0.9 -2,2c0,1.1 0.9,2 2,2h31c0.8,0 1.5,-0.5 1.8,-1.2v0v0c0.1,-0.1 0.1,-0.3 0.1,-0.4v0c0,-0.1 0.1,-0.3 0.1,-0.4c0,-1.1 -0.9,-2 -2,-2z" fill="#64b5f6"></path><path d="M13,24c0,6.1 4.9,11 11,11c6.1,0 11,-4.9 11,-11c0,-6.1 -4.9,-11 -11,-11c-6.1,0 -11,4.9 -11,11" fill="#ffeb3b"></path><path d="M24,35c4.3,0 8,-2.4 9.8,-6h-5.8h-3h-6c-1.1,0 -2,-0.9 -2,-2c0,-1.1 0.9,-2 2,-2h2c1.1,0 2,-0.9 2,-2v0c0,-1.1 -0.9,-2 -2,-2h-7.6c-0.3,1 -0.4,2 -0.4,3c0,6.1 4.9,11 11,11z" fill="#bbdefb"></path></g></g></svg>